<svg
  version="1.0"
  xmlns="http://www.w3.org/2000/svg"
  width="128"
  height="128"
  viewBox="0 0 96 96"
  fill="none"
  stroke="#00ff9d"
  stroke-width="2"
>
  <!-- Electrones -->
  <path d="M27.8 16.1 8 26v44l20 10 20 10 20-10 20-10V26L68 16C57 10.5 47.9 6 47.8 6.1c-.2 0-9.2 4.5-20 10zm20.7-.6c3.3-.1 6.5-.4 7.1-.6.6-.2 5.2 1.6 10.3 4.1 8.2 4 9 4.6 7.4 5.8-1.6 1.1-1.6 1.4-.3 2.2 1.3.9 1.3 1.1 0 2-1.3.8-1.3 1.1.3 2.2 1.6 1.2.8 1.8-7.4 5.8-5.1 2.5-9.7 4.3-10.3 4.1-2.1-.8-13.1-.8-14.6-.1-1 .5-4.9-.9-10.9-4-8.4-4.1-9.2-4.8-7.5-5.8 1.6-1 1.7-1.3.4-2.2-1.3-.9-1.3-1.1 0-2 1.3-.9 1.2-1.2-.4-2.2-1.7-1-.9-1.7 7.5-5.8 6-3.1 9.9-4.5 10.9-4 .8.4 4.2.7 7.5.5zM36 45.6c0 1.1-.6 1.3-2 .9-1.4-.5-2-.2-2 .9 0 1.8-.2 1.9-2.4 1-.9-.3-1.6-1.7-1.6-2.9 0-1.5-.8-2.6-2-3-1.1-.3-2-1.5-2-2.5 0-1.7.6-1.6 6 1.2 3.3 1.6 6 3.6 6 4.4zm34.2-2.7c-1.1.9-2.2 2.5-2.4 3.6-.4 2.3-3.8 3.4-3.8 1.2 0-1-.7-1.3-2-1-1.4.4-2 0-2-1 0-.9 2.5-2.8 5.8-4.4 4.6-2.3 5.8-2.6 6.1-1.4.2.8-.6 2.1-1.7 3z" />

  <!-- Rastro -->
  <path
    d="M37.3 22.9c-5.1 2.5-9.2 4.8-9.2 5.1 0 .3 4.4 2.7 9.9 5.4l10 4.9 10-4.9c5.5-2.7 9.9-5.1 9.9-5.4 0-.7-19.2-10-20.4-9.9-.5.1-5.2 2.2-10.2 4.8zM50 23c1.3.9 1.3 1.1 0 2-.8.5-1.7 1-2 1-.3 0-1.2-.5-2-1-1.3-.9-1.3-1.1 0-2 .8-.5 1.7-1 2-1 .3 0 1.2.5 2 1zm-8 4c1.3.9 1.3 1.1 0 2-.8.5-1.7 1-2 1-.3 0-1.2-.5-2-1-1.3-.9-1.3-1.1 0-2 .8-.5 1.7-1 2-1 .3 0 1.2.5 2 1zm16 0c1.3.9 1.3 1.1 0 2-.8.5-1.7 1-2 1-.3 0-1.2-.5-2-1-1.3-.9-1.3-1.1 0-2 .8-.5 1.7-1 2-1 .3 0 1.2.5 2 1zm-8 4c1.3.9 1.3 1.1 0 2-.8.5-1.7 1-2 1-.3 0-1.2-.5-2-1-1.3-.9-1.3-1.1 0-2 .8-.5 1.7-1 2-1 .3 0 1.2.5 2 1z"
    stroke="#00ff80"
    stroke-width="1.5"
    stroke-opacity="0.3"
  />
</svg>
